<mxfile host="app.diagrams.net" agent="Mozilla/5.0 (Macintosh; Intel Mac OS X 10_15_7) AppleWebKit/537.36 (KHTML, like Gecko) Chrome/131.0.0.0 Safari/537.36" version="26.0.8">
  <diagram name="Page-1" id="AJQJZDR4ivuqLVkCC306">
    <mxGraphModel dx="1865" dy="1244" grid="1" gridSize="10" guides="1" tooltips="1" connect="1" arrows="1" fold="1" page="1" pageScale="1" pageWidth="850" pageHeight="1100" math="0" shadow="0">
      <root>
        <mxCell id="0" />
        <mxCell id="1" parent="0" />
        <mxCell id="4AVgr6EbNl1ixYy9nlCx-73" value="" style="whiteSpace=wrap;html=1;aspect=fixed;" vertex="1" parent="1">
          <mxGeometry x="700" y="1070" width="980" height="980" as="geometry" />
        </mxCell>
        <mxCell id="4AVgr6EbNl1ixYy9nlCx-12" value="" style="rounded=1;arcSize=10;dashed=0;strokeWidth=2;align=left;verticalAlign=top;fontSize=20;spacingTop=-30;labelBackgroundColor=#FFD6F2;textShadow=0;fillColor=#cce5ff;strokeColor=#36393d;" vertex="1" parent="1">
          <mxGeometry x="830" y="1210" width="720" height="780" as="geometry" />
        </mxCell>
        <mxCell id="4AVgr6EbNl1ixYy9nlCx-2" value="&lt;font style=&quot;font-size: 20px;&quot;&gt;Amazon VPC&lt;/font&gt;" style="sketch=0;outlineConnect=0;fontColor=#232F3E;gradientColor=none;strokeColor=#ffffff;fillColor=#232F3E;dashed=0;verticalLabelPosition=middle;verticalAlign=bottom;align=center;html=1;whiteSpace=wrap;fontSize=10;fontStyle=1;spacing=3;shape=mxgraph.aws4.productIcon;prIcon=mxgraph.aws4.vpc;" vertex="1" parent="1">
          <mxGeometry x="830" y="1207" width="76" height="133" as="geometry" />
        </mxCell>
        <mxCell id="4AVgr6EbNl1ixYy9nlCx-21" style="edgeStyle=orthogonalEdgeStyle;rounded=0;orthogonalLoop=1;jettySize=auto;html=1;" edge="1" parent="1" source="4AVgr6EbNl1ixYy9nlCx-4" target="4AVgr6EbNl1ixYy9nlCx-22">
          <mxGeometry relative="1" as="geometry">
            <mxPoint x="1440" y="1180" as="targetPoint" />
          </mxGeometry>
        </mxCell>
        <mxCell id="4AVgr6EbNl1ixYy9nlCx-4" value="&lt;div style=&quot;line-height: 110%;&quot;&gt;&lt;b style=&quot;font-size: 16px; background-color: transparent; color: light-dark(rgb(35, 47, 62), rgb(189, 199, 212));&quot;&gt;&lt;br&gt;Internet&lt;/b&gt;&lt;/div&gt;&lt;div style=&quot;line-height: 110%;&quot;&gt;&lt;span&gt;&lt;font style=&quot;font-size: 16px;&quot;&gt;&lt;b&gt;gateway&lt;/b&gt;&lt;/font&gt;&lt;/span&gt;&lt;/div&gt;" style="sketch=0;outlineConnect=0;fontColor=#232F3E;gradientColor=none;strokeColor=#232F3E;fillColor=#ffffff;dashed=0;verticalLabelPosition=bottom;verticalAlign=top;align=center;html=1;fontSize=12;fontStyle=0;aspect=fixed;shape=mxgraph.aws4.resourceIcon;resIcon=mxgraph.aws4.internet_gateway;" vertex="1" parent="1">
          <mxGeometry x="1260" y="1222" width="70" height="70" as="geometry" />
        </mxCell>
        <mxCell id="4AVgr6EbNl1ixYy9nlCx-10" value="&lt;font style=&quot;font-size: 16px;&quot;&gt;Public subnet&lt;/font&gt;" style="points=[[0,0],[0.25,0],[0.5,0],[0.75,0],[1,0],[1,0.25],[1,0.5],[1,0.75],[1,1],[0.75,1],[0.5,1],[0.25,1],[0,1],[0,0.75],[0,0.5],[0,0.25]];outlineConnect=0;gradientColor=none;html=1;whiteSpace=wrap;fontSize=12;fontStyle=0;container=1;pointerEvents=0;collapsible=0;recursiveResize=0;shape=mxgraph.aws4.group;grIcon=mxgraph.aws4.group_security_group;grStroke=0;strokeColor=#7AA116;fillColor=#F2F6E8;verticalAlign=top;align=left;spacingLeft=30;fontColor=#248814;dashed=0;" vertex="1" parent="1">
          <mxGeometry x="920" y="1350" width="540" height="270" as="geometry" />
        </mxCell>
        <mxCell id="4AVgr6EbNl1ixYy9nlCx-70" value="" style="edgeStyle=orthogonalEdgeStyle;rounded=0;orthogonalLoop=1;jettySize=auto;html=1;" edge="1" parent="4AVgr6EbNl1ixYy9nlCx-10">
          <mxGeometry relative="1" as="geometry">
            <mxPoint x="261" y="172" as="sourcePoint" />
            <mxPoint x="261" y="286" as="targetPoint" />
          </mxGeometry>
        </mxCell>
        <mxCell id="4AVgr6EbNl1ixYy9nlCx-5" value="&lt;font style=&quot;font-size: 16px;&quot;&gt;&lt;b&gt;Route table&lt;/b&gt;&lt;/font&gt;" style="sketch=0;outlineConnect=0;fontColor=#232F3E;gradientColor=none;strokeColor=#232F3E;fillColor=#ffffff;dashed=0;verticalLabelPosition=bottom;verticalAlign=top;align=center;html=1;fontSize=12;fontStyle=0;aspect=fixed;shape=mxgraph.aws4.resourceIcon;resIcon=mxgraph.aws4.route_table;" vertex="1" parent="4AVgr6EbNl1ixYy9nlCx-10">
          <mxGeometry x="231" y="108" width="60" height="60" as="geometry" />
        </mxCell>
        <mxCell id="4AVgr6EbNl1ixYy9nlCx-15" value="&lt;font style=&quot;font-size: 16px;&quot;&gt;Private subnet&lt;/font&gt;" style="points=[[0,0],[0.25,0],[0.5,0],[0.75,0],[1,0],[1,0.25],[1,0.5],[1,0.75],[1,1],[0.75,1],[0.5,1],[0.25,1],[0,1],[0,0.75],[0,0.5],[0,0.25]];outlineConnect=0;gradientColor=none;html=1;whiteSpace=wrap;fontSize=12;fontStyle=0;container=1;pointerEvents=0;collapsible=0;recursiveResize=0;shape=mxgraph.aws4.group;grIcon=mxgraph.aws4.group_security_group;grStroke=0;strokeColor=#00A4A6;fillColor=#E6F6F7;verticalAlign=top;align=left;spacingLeft=30;fontColor=#147EBA;dashed=0;" vertex="1" parent="1">
          <mxGeometry x="920" y="1635" width="540" height="275" as="geometry" />
        </mxCell>
        <mxCell id="4AVgr6EbNl1ixYy9nlCx-26" value="&lt;font style=&quot;font-size: 16px;&quot;&gt;Postgres DB&lt;/font&gt;" style="sketch=0;outlineConnect=0;fontColor=#232F3E;gradientColor=none;strokeColor=#ffffff;fillColor=#232F3E;dashed=0;verticalLabelPosition=middle;verticalAlign=bottom;align=center;html=1;whiteSpace=wrap;fontSize=10;fontStyle=1;spacing=3;shape=mxgraph.aws4.productIcon;prIcon=mxgraph.aws4.ec2;" vertex="1" parent="4AVgr6EbNl1ixYy9nlCx-15">
          <mxGeometry x="114" y="94" width="80" height="120" as="geometry" />
        </mxCell>
        <mxCell id="4AVgr6EbNl1ixYy9nlCx-24" value="&lt;font style=&quot;font-size: 16px;&quot;&gt;&lt;b&gt;Route table&lt;/b&gt;&lt;/font&gt;" style="sketch=0;outlineConnect=0;fontColor=#232F3E;gradientColor=none;strokeColor=#232F3E;fillColor=#ffffff;dashed=0;verticalLabelPosition=bottom;verticalAlign=top;align=center;html=1;fontSize=12;fontStyle=0;aspect=fixed;shape=mxgraph.aws4.resourceIcon;resIcon=mxgraph.aws4.route_table;" vertex="1" parent="4AVgr6EbNl1ixYy9nlCx-15">
          <mxGeometry x="234" y="94" width="60" height="60" as="geometry" />
        </mxCell>
        <mxCell id="4AVgr6EbNl1ixYy9nlCx-3" value="&lt;font style=&quot;font-size: 16px;&quot;&gt;&lt;b&gt;NAT gateway&lt;/b&gt;&lt;/font&gt;" style="sketch=0;outlineConnect=0;fontColor=#232F3E;gradientColor=none;strokeColor=#232F3E;fillColor=#ffffff;dashed=0;verticalLabelPosition=bottom;verticalAlign=top;align=center;html=1;fontSize=12;fontStyle=0;aspect=fixed;shape=mxgraph.aws4.resourceIcon;resIcon=mxgraph.aws4.nat_gateway;" vertex="1" parent="1">
          <mxGeometry x="1311" y="1443" width="75" height="75" as="geometry" />
        </mxCell>
        <mxCell id="4AVgr6EbNl1ixYy9nlCx-16" style="edgeStyle=orthogonalEdgeStyle;rounded=0;orthogonalLoop=1;jettySize=auto;html=1;" edge="1" parent="1" source="4AVgr6EbNl1ixYy9nlCx-3" target="4AVgr6EbNl1ixYy9nlCx-4">
          <mxGeometry relative="1" as="geometry">
            <mxPoint x="1420" y="1325" as="targetPoint" />
            <Array as="points">
              <mxPoint x="1420" y="1245" />
            </Array>
          </mxGeometry>
        </mxCell>
        <mxCell id="4AVgr6EbNl1ixYy9nlCx-22" value="&lt;font style=&quot;font-size: 16px;&quot;&gt;&lt;b&gt;Internet&lt;/b&gt;&lt;/font&gt;" style="image;aspect=fixed;perimeter=ellipsePerimeter;html=1;align=center;shadow=0;dashed=0;spacingTop=3;image=img/lib/active_directory/internet_cloud.svg;" vertex="1" parent="1">
          <mxGeometry x="1110" y="1100" width="104" height="65.52" as="geometry" />
        </mxCell>
        <mxCell id="4AVgr6EbNl1ixYy9nlCx-25" value="&lt;font style=&quot;font-size: 16px;&quot;&gt;FastApi App&lt;/font&gt;" style="sketch=0;outlineConnect=0;fontColor=#232F3E;gradientColor=none;strokeColor=#ffffff;fillColor=#232F3E;dashed=0;verticalLabelPosition=middle;verticalAlign=bottom;align=center;html=1;whiteSpace=wrap;fontSize=10;fontStyle=1;spacing=3;shape=mxgraph.aws4.productIcon;prIcon=mxgraph.aws4.ec2;" vertex="1" parent="1">
          <mxGeometry x="1031" y="1443" width="80" height="125" as="geometry" />
        </mxCell>
        <mxCell id="4AVgr6EbNl1ixYy9nlCx-39" value="" style="edgeStyle=orthogonalEdgeStyle;rounded=0;orthogonalLoop=1;jettySize=auto;html=1;" edge="1" parent="1">
          <mxGeometry relative="1" as="geometry">
            <mxPoint x="1214" y="1755" as="sourcePoint" />
            <mxPoint x="1270" y="1618" as="targetPoint" />
          </mxGeometry>
        </mxCell>
        <mxCell id="4AVgr6EbNl1ixYy9nlCx-33" value="" style="edgeStyle=orthogonalEdgeStyle;rounded=0;orthogonalLoop=1;jettySize=auto;html=1;flowAnimation=0;shadow=0;curved=0;strokeColor=default;jumpStyle=none;" edge="1" parent="1" source="4AVgr6EbNl1ixYy9nlCx-24" target="4AVgr6EbNl1ixYy9nlCx-3">
          <mxGeometry relative="1" as="geometry">
            <mxPoint x="1300" y="1477" as="targetPoint" />
          </mxGeometry>
        </mxCell>
        <mxCell id="4AVgr6EbNl1ixYy9nlCx-60" value="" style="edgeStyle=orthogonalEdgeStyle;rounded=0;orthogonalLoop=1;jettySize=auto;html=1;" edge="1" parent="1" source="4AVgr6EbNl1ixYy9nlCx-5" target="4AVgr6EbNl1ixYy9nlCx-4">
          <mxGeometry relative="1" as="geometry">
            <mxPoint x="1200" y="1380" as="targetPoint" />
          </mxGeometry>
        </mxCell>
      </root>
    </mxGraphModel>
  </diagram>
</mxfile>
